<svg aria-hidden="true" style="width:0;height:0;position:absolute;overflow:hidden" xmlns="http://www.w3.org/2000/svg"><defs><symbol id="icon-more" viewBox="0 0 24 24"><path d="M16.594 8.578 18 9.984l-6 6-6-6 1.406-1.406L12 13.172z"/></symbol><symbol id="icon-search" viewBox="0 0 24 24"><path d="M9.516 14.016q1.875 0 3.188-1.313t1.313-3.188-1.313-3.188-3.188-1.313-3.188 1.313-1.313 3.188 1.313 3.188 3.188 1.313zm6 0 4.969 4.969-1.5 1.5-4.969-4.969v-.797l-.281-.281q-1.781 1.547-4.219 1.547-2.719 0-4.617-1.875T3.001 9.516t1.898-4.617 4.617-1.898 4.594 1.898 1.875 4.617q0 .984-.469 2.227t-1.078 1.992l.281.281h.797z"/></symbol><symbol id="icon-download" viewBox="0 0 24 24"><path d="M17.016 12.984h-3V9H9.985v3.984h-3L12.001 18zm2.343-2.953q1.922.141 3.281 1.57t1.359 3.398q0 2.063-1.477 3.539t-3.539 1.477H5.999q-2.484 0-4.242-1.758t-1.758-4.242q0-2.203 1.57-3.961t3.773-1.992q.984-1.828 2.766-2.953t3.891-1.125q2.531 0 4.711 1.781t2.648 4.266z"/></symbol><symbol id="icon-comment" viewBox="0 0 24 24"><path d="M20.016 2.016q.797 0 1.383.586t.586 1.383v12q0 .797-.586 1.406T20.016 18H6l-3.984 3.984v-18q0-.797.586-1.383t1.383-.586h16.031z"/></symbol><symbol id="icon-view" viewBox="0 0 24 24"><path d="M12 9q1.219 0 2.109.891T15 12t-.891 2.109T12 15t-2.109-.891T9 12t.891-2.109T12 9zm0 8.016q2.063 0 3.539-1.477T17.016 12t-1.477-3.539T12 6.984 8.461 8.461 6.984 12t1.477 3.539T12 17.016zM12 4.5q3.703 0 6.703 2.063t4.313 5.438q-1.313 3.375-4.313 5.438T12 19.502t-6.703-2.063-4.313-5.438q1.313-3.375 4.313-5.438T12 4.5z"/></symbol><symbol id="icon-like" viewBox="0 0 24 24"><path d="m12 21.328-1.453-1.313q-2.484-2.25-3.609-3.328T4.43 14.015t-1.898-2.883-.516-2.648q0-2.297 1.57-3.891T7.5 2.999q2.719 0 4.5 2.109 1.781-2.109 4.5-2.109 2.344 0 3.914 1.594t1.57 3.891q0 1.828-1.219 3.797t-2.648 3.422-4.664 4.359z"/></symbol></defs></svg>